HIERARCHY
ROOT Hips
{
	OFFSET -3.958830 18.904000 13.208200
	CHANNELS 6 Xposition Yposition Zposition Zrotation Yrotation Xrotation 
	JOINT LHipJoint
	{
		OFFSET 0.000000 0.000000 0.000000
		CHANNELS 3 Zrotation Yrotation Xrotation
		JOINT LeftUpLeg
		{
			OFFSET 1.800000 -1.400000 0.085000
			CHANNELS 3 Zrotation Yrotation Xrotation
			JOINT LeftLeg
			{
				OFFSET 2.215000 -6.000000 0.000000
				CHANNELS 3 Zrotation Yrotation Xrotation
				JOINT LeftFoot
				{
					OFFSET 2.500000 -6.900000 0.000000
					CHANNELS 3 Zrotation Yrotation Xrotation
					JOINT LeftToeBase
					{
						OFFSET 0.200000 -0.500000 1.950000
						CHANNELS 3 Zrotation Yrotation Xrotation
						End Site
						{
							OFFSET 0.000000 0.000000 0.000000
						}
					}
				}
			}
		}
	}
	JOINT RHipJoint
	{
		OFFSET 0.000000 0.000000 0.000000
		CHANNELS 3 Zrotation Yrotation Xrotation
		JOINT RightUpLeg
		{
			OFFSET -1.800000 -1.400000 0.085000
			CHANNELS 3 Zrotation Yrotation Xrotation
			JOINT RightLeg
			{
				OFFSET -2.215000 -6.000000 0.000000
				CHANNELS 3 Zrotation Yrotation Xrotation
				JOINT RightFoot
				{
					OFFSET -2.500000 -6.900000 0.000000
					CHANNELS 3 Zrotation Yrotation Xrotation
					JOINT RightToeBase
					{
						OFFSET -0.200000 -0.500000 1.950000
						CHANNELS 3 Zrotation Yrotation Xrotation
						End Site
						{
							OFFSET 0.000000 0.000000 0.000000
						}
					}
				}
			}
		}
	}
	JOINT LowerBack
	{
		OFFSET 0.000000 0.000000 0.000000
		CHANNELS 3 Zrotation Yrotation Xrotation
		JOINT Spine
		{
			OFFSET -0.087000 1.940000 -0.288900
			CHANNELS 3 Zrotation Yrotation Xrotation
			JOINT Spine1
			{
				OFFSET 0.000000 1.950000 0.060000
				CHANNELS 3 Zrotation Yrotation Xrotation
				JOINT Neck
				{
					OFFSET 0.000000 0.000000 0.000000
					CHANNELS 3 Zrotation Yrotation Xrotation
					JOINT Neck1
					{
						OFFSET 0.000000 1.600000 0.340000
						CHANNELS 3 Zrotation Yrotation Xrotation
						JOINT Head
						{
							OFFSET 0.000000 1.667000 -0.240000
							CHANNELS 3 Zrotation Yrotation Xrotation
							End Site
							{
								OFFSET 0.000000 0.000000 0.000000
							}
						}
					}
				}
				JOINT LeftShoulder
				{
					OFFSET 0.000000 0.000000 0.000000
					CHANNELS 3 Zrotation Yrotation Xrotation
					JOINT LeftArm
					{
						OFFSET 2.700000 1.550000 -0.730000
						CHANNELS 3 Zrotation Yrotation Xrotation
						JOINT LeftForeArm
						{
							OFFSET 5.450000 0.000000 0.000000
							CHANNELS 3 Zrotation Yrotation Xrotation
							JOINT LeftHand
							{
								OFFSET 3.450000 0.000000 0.000000
								CHANNELS 3 Zrotation Yrotation Xrotation
								JOINT LeftHandIndex1
								{
									OFFSET 0.750000 0.000000 0.000000
									CHANNELS 3 Zrotation Yrotation Xrotation
									End Site
									{
										OFFSET 0.000000 0.000000 0.000000
									}
								}
							}
						}
					}
				}
				JOINT RightShoulder
				{
					OFFSET 0.000000 0.000000 0.000000
					CHANNELS 3 Zrotation Yrotation Xrotation
					JOINT RightArm
					{
						OFFSET -2.700000 1.550000 -0.730000
						CHANNELS 3 Zrotation Yrotation Xrotation
						JOINT RightForeArm
						{
							OFFSET -5.450000 0.000000 0.000000
							CHANNELS 3 Zrotation Yrotation Xrotation
							JOINT RightHand
							{
								OFFSET -3.450000 0.000000 0.000000
								CHANNELS 3 Zrotation Yrotation Xrotation
								JOINT RightHandIndex1
								{
									OFFSET -0.750000 0.000000 0.000000
									CHANNELS 3 Zrotation Yrotation Xrotation
									End Site
									{
										OFFSET 0.000000 0.000000 0.000000
									}
								}
							}
						}
					}
				}
			}
		}
	}
}
MOTION
Frames: 8
Frame Time: 0.016667
-3.923990 16.664070 -7.359460 1.615868 17.781849 -8.889288 -15.239639 13.640058 3.343455 4.462928 -3.544002 -7.727502 -13.463229 13.029380 34.648431 0.536567 7.705167 1.685465 0.420860 0.357940 0.378290 18.108912 -10.290335 3.232838 -11.474205 2.723417 -37.555770 -0.264176 -6.352485 38.867929 -0.457877 -4.675260 2.462531 0.195810 -0.288320 -0.005800 -3.615480 -2.928936 -8.339197 7.715083 -6.903507 32.122478 -5.000605 -5.226342 0.404977 2.054383 -3.802131 -7.602195 -14.587769 7.110189 63.113582 1.738450 -0.071210 -10.173700 -32.393723 -6.118382 1.088317 -34.430741 -0.470148 -11.752074 -8.926606 -55.542303 1.530319 -3.232244 3.136890 0.509960 -0.282250 0.305760 -0.024360 29.036402 7.670059 3.466041 42.864581 0.094285 -13.603587 14.532444 43.369427 3.051904 2.278331 -1.260828 -0.014980 0.159560 -0.073850 -0.186820 
-3.839400 16.721280 -7.323370 2.221373 15.568852 -8.944838 -15.105797 13.671952 3.228237 2.241770 -1.997735 -4.860513 -12.095453 11.760842 31.336308 0.431882 7.005749 1.940063 0.424790 0.357940 0.408130 18.233905 -10.569681 3.133763 -10.311699 2.786114 -36.353670 -1.875006 -5.319112 37.239665 -0.412497 -4.290197 2.594564 0.189370 -0.322860 -0.000610 -3.970841 -2.431742 -8.170007 9.833576 -9.219643 29.419745 -9.389436 -7.552090 1.844978 3.750659 -3.910046 -7.886279 -13.047414 8.725172 64.433121 -0.816390 1.592850 -9.329340 -32.800104 -5.874481 2.111668 -38.178207 3.308748 -12.517262 0.741123 -42.014129 -2.446202 -3.214205 3.046960 0.506820 -0.281890 0.318140 -0.038090 25.874281 6.693394 3.285371 42.815948 2.527649 -12.055411 33.947315 56.175418 13.258720 2.351871 -1.451582 -0.003790 0.138700 -0.080060 -0.203450 
-3.775530 16.784110 -7.278110 2.592812 13.431353 -9.472683 -15.040312 13.731286 3.223023 1.302849 -0.636278 -2.064147 -12.111600 11.222009 28.004485 0.405544 6.606269 2.092419 0.449500 0.391430 0.444830 18.289145 -10.725019 2.996087 -9.456888 2.796040 -34.356916 -2.108041 -4.802914 35.322899 -0.376736 -3.964313 2.709050 0.201110 -0.359270 0.007740 -4.108143 -2.244596 -8.047404 11.142066 -10.672178 27.527854 -12.089076 -8.990102 3.553920 5.212922 -3.740195 -8.304454 -11.373076 9.666662 65.509267 -3.374730 2.646770 -8.591390 -33.356840 -6.192501 2.825832 -40.931282 5.712539 -11.073729 4.200921 -28.529262 -2.493762 -3.258653 2.984477 0.481620 -0.277750 0.333250 -0.040990 23.413757 6.473039 3.524966 40.154038 5.189612 -7.779757 61.599408 68.610264 34.163353 2.609258 -1.477661 0.023760 0.116500 -0.102250 -0.207440 
-3.729860 16.835610 -7.236220 2.662138 11.558088 -9.775415 -14.999791 13.756370 3.236851 0.806206 0.345264 -0.079672 -12.220074 10.836052 25.321464 0.394701 6.358873 2.199116 0.442960 0.386870 0.437090 18.328504 -10.812202 2.891703 -8.402955 2.771839 -32.690653 -2.102710 -4.406082 33.340539 -0.316539 -3.673420 2.822020 0.203170 -0.351760 0.014300 -4.184661 -2.137997 -7.957172 12.621434 -11.445243 25.897193 -13.824255 -9.770748 4.251538 6.376746 -4.089347 -8.072226 -11.142920 10.354591 64.596345 -5.230980 2.522190 -7.511230 -33.057527 -5.465971 2.822516 -42.979413 7.416840 -9.743309 1.471494 -20.645400 -1.550803 -3.315216 2.946780 0.434480 -0.253100 0.310070 -0.039020 20.736914 6.029224 3.057888 36.348946 5.952386 -8.069213 113.622308 70.003271 80.369144 2.920967 -0.145631 0.036220 0.101870 -0.102030 -0.195690 
-3.705950 16.887190 -7.209400 2.434349 10.894926 -10.142136 -15.015439 13.866255 3.260767 0.542745 0.829288 0.852293 -11.340808 10.435094 24.454350 0.369918 6.224998 2.251650 0.418680 0.354560 0.430680 18.287864 -10.890600 2.813074 -7.694958 2.628790 -30.578587 -1.169228 -4.345092 31.098190 -0.246865 -3.427451 2.916900 0.196940 -0.351200 0.026670 -4.102695 -2.183235 -7.927735 13.268350 -11.489763 25.021459 -14.000877 -9.707124 4.762001 7.703509 -3.686110 -7.919767 -8.925235 9.252043 63.871809 -7.642490 2.104140 -6.386520 -32.679481 -4.674748 2.302881 -44.233387 8.853254 -9.287705 -4.311304 -15.465419 -0.916862 -3.355190 2.908486 0.390480 -0.221520 0.280830 -0.054750 17.766213 5.175973 3.544389 30.293932 6.555038 -4.548840 160.182839 62.759876 139.711507 2.108465 -1.641349 0.039670 0.073940 -0.089110 -0.197880 
-3.688850 16.944970 -7.203170 1.930687 10.055185 -10.530784 -15.102342 14.088943 3.307411 0.761539 0.998081 1.018311 -10.838252 10.316303 24.284251 0.381829 6.198104 2.267636 0.395050 0.321080 0.418750 18.170613 -10.813071 2.802478 -6.984438 2.758741 -28.860860 -0.072112 -4.327251 29.316036 -0.200585 -3.218282 3.011016 0.176080 -0.351160 0.032060 -3.800787 -2.657052 -7.966910 13.236616 -11.243383 25.599968 -12.475481 -9.236153 3.903337 8.758932 -3.898696 -8.099407 -9.032269 8.867065 62.745653 -8.982680 1.834000 -5.826420 -32.081203 -2.945594 1.336758 -45.826575 10.741617 -10.364766 -10.726005 -14.289384 -0.746385 -3.350524 2.900912 0.372060 -0.212280 0.266400 -0.060940 15.146883 4.241118 4.344163 22.221003 6.243434 -1.122704 -173.687720 54.401955 -175.432895 2.156986 -1.982805 0.043100 0.054560 -0.082160 -0.195970 
-3.691720 16.983090 -7.198510 1.381688 9.528915 -10.738207 -15.237867 14.362002 3.350648 1.539555 1.047197 0.875243 -10.797846 10.407400 24.199143 0.434488 6.231081 2.273363 0.349900 0.264130 0.381800 18.005732 -10.648588 2.825639 -6.507430 2.962036 -27.399219 1.529406 -4.527474 27.875402 -0.162531 -3.079004 3.096105 0.128600 -0.332630 0.026290 -3.366763 -3.361010 -8.063769 12.416107 -10.519757 26.511397 -9.799038 -8.065875 2.182769 9.456175 -4.327381 -8.440734 -10.232133 8.225897 61.703180 -8.863210 1.259520 -4.847050 -30.623814 -0.402552 0.407219 -47.641951 12.890673 -12.122665 -18.104697 -15.071406 -0.567120 -3.343699 2.919145 0.359050 -0.210780 0.247150 -0.059610 12.463569 3.081703 5.074494 12.780518 2.778717 -0.987085 -157.297648 48.976982 -138.381165 2.325438 -1.927076 0.043340 0.042010 -0.072100 -0.182820 
-3.704730 17.012160 -7.195660 1.104875 9.617747 -10.597172 -15.281792 14.441866 3.357906 1.980530 0.981623 0.548608 -10.852840 10.375500 23.893645 0.459601 6.201929 2.304639 0.302580 0.203540 0.336540 17.946122 -10.625162 2.814617 -6.544844 2.753762 -26.262109 2.904027 -4.767822 26.081458 -0.121847 -2.961986 3.167284 0.085920 -0.298820 0.023410 -3.226782 -3.565606 -8.099962 12.167747 -10.046394 26.280247 -8.528125 -7.186068 1.966919 9.380810 -4.394973 -8.811182 -10.832788 7.032122 59.549496 -7.955550 0.528240 -4.140090 -28.061319 1.059454 0.486619 -48.368026 14.715597 -13.580889 -26.783469 -16.628300 -0.051247 -3.346727 2.981623 0.344590 -0.199580 0.217980 -0.054400 10.093689 2.226497 5.371078 6.224304 -2.220231 -2.126532 -147.595945 50.722922 -121.684514 2.440029 -1.794697 0.035620 0.032700 -0.058290 -0.169950 
